<?xml version="1.0" encoding="UTF-8"?> <svg xmlns="http://www.w3.org/2000/svg" viewBox="0 0 111.9704 112.85263"><path d="M12.06514,28.02351,25.78275,85.499l32.589,17.12308s43.35274-27.205,44.21451-28.96394S79.47517,10.95022,79.47517,10.95022Z" style="fill:#fff"></path><path d="M40.09618,23.23175l-8.85986-16.974A55.25474,55.25474,0,0,0,2.49456,45.17914l19.33481,3.56457a34.97822,34.97822,0,0,1,18.26681-25.512" style="fill:#feca05"></path><path d="M21.40828,54.17394a35.08619,35.08619,0,0,1,.42083-5.43026L2.49467,45.17912A55.52281,55.52281,0,0,0,2.97541,67.542l19.57026-4.4942a35.002,35.002,0,0,1-1.13739-8.87389" style="fill:#f08d04"></path><path d="M22.54555,63.04764,2.9753,67.54183A54.85946,54.85946,0,0,0,9.87052,84.26862L27.23764,73.50174a34.72129,34.72129,0,0,1-4.69209-10.4541" style="fill:#f7a609"></path><path d="M27.23776,73.50185,9.87024,84.26874a55.58025,55.58025,0,0,0,9.18022,11.19871A139.33508,139.33508,0,0,1,0,99.79785c.39125.37534,11.18391,7.70655,28.1234,11.21388L41.1442,85.64611A35.093,35.093,0,0,1,27.23776,73.50185" style="fill:#e95c0c"></path><path d="M56.356,89.12169a34.8068,34.8068,0,0,1-15.2118-3.47547l-13.0208,25.36561a87.07158,87.07158,0,0,0,28.6557,1.15824V89.116c-.14181.00228-.28132.00568-.4231.00568" style="fill:#f7a609"></path><path d="M56.77915,89.11627V112.17a87.9978,87.9978,0,0,0,15.58219-3.44135l-.0091-.03488A53.77019,53.77019,0,0,0,85.7624,102.622L74.43479,84.08675a34.762,34.762,0,0,1-17.65564,5.02952" style="fill:#94c11f"></path><path d="M91.30366,54.17394A34.92507,34.92507,0,0,1,74.43507,84.08645L85.7623,102.62207a56.28742,56.28742,0,0,0,18.99019-19.98579l.0273-.05459a55.73553,55.73553,0,0,0,5.96256-39.01728L90.7361,47.87434a35.09816,35.09816,0,0,1,.56756,6.2996" style="fill:#c7d309"></path><path d="M57.42691.00381A54.95875,54.95875,0,0,0,31.23629,6.25756l8.85987,16.974A34.96126,34.96126,0,0,1,90.73564,47.87414l20.00627-4.30993A55.20357,55.20357,0,0,0,57.42691.00381" style="fill:#e7e00b"></path><path d="M46.67877,52.27191,47.754,70.52484a1.82812,1.82812,0,0,1-1.7168,1.93359l-6.085.3584a1.828,1.828,0,0,1-1.93261-1.71777L36.94341,52.84613a1.82957,1.82957,0,0,1,1.71778-1.93359l6.085-.3584A1.82861,1.82861,0,0,1,46.67877,52.27191ZM44.53326,67.66254a1.82884,1.82884,0,1,0-1.71778,1.93261A1.83027,1.83027,0,0,0,44.53326,67.66254ZM63.295,45.7973l7.7373-.456a4.55362,4.55362,0,0,1,4.79,4.15332,5.52576,5.52576,0,0,1-1.25781,3.82812l-.00781.00879a6.36494,6.36494,0,0,1-.35352,6.08594,6.02171,6.02171,0,0,1-.91016,5.75879,4.043,4.043,0,0,1-.26757,3.42187c-1.4209,2.32227-5.26563,2.58008-8.51954,2.77246l-.21679.0127a21.86183,21.86183,0,0,1-9.23438-1.87793,11.98682,11.98682,0,0,0-4.07812-.99414.9137.9137,0,0,1-.94922-.86035l-.958-16.25782a.91112.91112,0,0,1,.23242-.66406c2.83692-3.15527,3.94629-6.38281,6.27051-9.002,1.06055-1.19434,1.36914-2.92285,1.668-4.59375.25488-1.42676.78711-4.457,2.32227-4.54785,1.82421-.10742,5.51074.28613,5.83984,5.873C65.59283,41.684,63.72466,43.6098,63.295,45.7973Z" style="fill:#69b13d"></path></svg> 